<?xml version="1.0" encoding="utf-8"?>
<!-- Designed by Vexels.com - 2019 All Rights Reserved - https://vexels.com/terms-and-conditions/  -->
<svg version="1.1" id="Layer_1" xmlns="http://www.w3.org/2000/svg" xmlns:xlink="http://www.w3.org/1999/xlink" x="0px" y="0px"
	 viewBox="0 0 1200 1200" enable-background="new 0 0 1200 1200" xml:space="preserve">
<g>
	<g>
		<linearGradient id="SVGID_1_" gradientUnits="userSpaceOnUse" x1="563.1249" y1="696.9397" x2="555.7269" y2="1495.9264">
			<stop  offset="0.1542" style="stop-color:#A1C4D7"/>
			<stop  offset="0.1786" style="stop-color:#A8C8D9"/>
			<stop  offset="0.2665" style="stop-color:#BDD2DF"/>
			<stop  offset="0.3537" style="stop-color:#C9D9E2"/>
			<stop  offset="0.4386" style="stop-color:#CDDBE3"/>
		</linearGradient>
		<path fill="url(#SVGID_1_)" d="M595.809,1073.552V753.21h-73.045v320.342c-115.707,2.809-204.365,18.754-204.365,38.004
			c0,21.232,107.849,38.444,240.888,38.444c133.039,0,240.888-17.212,240.888-38.444
			C800.174,1092.306,711.515,1076.361,595.809,1073.552z"/>
		<linearGradient id="SVGID_2_" gradientUnits="userSpaceOnUse" x1="638.7006" y1="-124.5912" x2="470.67" y2="1415.689">
			<stop  offset="0.1397" style="stop-color:#6495BA"/>
			<stop  offset="0.363" style="stop-color:#375080"/>
			<stop  offset="0.7066" style="stop-color:#0A2530"/>
		</linearGradient>
		<path fill="url(#SVGID_2_)" d="M544.916,187.052c-38.428,0.088-75.818,14.151-108.537,34.305
			c-27.929,17.204-53.322,39.236-71.31,66.667c-22.616,34.488-32.514,75.711-38.758,116.477
			c-13.135,85.758-11.802,173.189-4.169,259.611c1.589,17.989,3.651,36.596,12.814,52.158c16.851,28.62,52.494,39.268,85.096,45.611
			c78.787,15.329,159.39,19.619,239.647,18.593c37.8-0.483,105.719-2.08,129.727-31.28c9.92-12.065,15.49-28.563,11.376-43.631
			c-4.862-17.81-47.185-32.143-64.646-38.139c-17.461-5.996-36.165-7.46-53.881-12.654c-5.957-1.746-12.028-4.066-16.243-8.623
			c-5.745-6.211-6.928-15.262-7.649-23.692c-6.465-75.524,1.903-151.155,4.193-226.662c1.139-37.58,0.659-75.147-3.581-112.536
			c-2.357-20.782-3.075-43.078-17.988-59.13C617.599,198.931,578.327,186.975,544.916,187.052z"/>
	</g>
	<g>
		<linearGradient id="SVGID_3_" gradientUnits="userSpaceOnUse" x1="871.124" y1="299.0057" x2="807.2808" y2="507.4081">
			<stop  offset="0.3729" style="stop-color:#1D1D3D"/>
			<stop  offset="0.4474" style="stop-color:#18304A"/>
			<stop  offset="0.5704" style="stop-color:#124A5B"/>
			<stop  offset="0.6979" style="stop-color:#0D5C68"/>
			<stop  offset="0.8314" style="stop-color:#0A676F"/>
			<stop  offset="0.9807" style="stop-color:#096B71"/>
		</linearGradient>
		<path fill="url(#SVGID_3_)" d="M816.526,379.338c-4.242,0.896-8.756,1.939-11.752,5.072c-3.402,3.557-3.99,8.898-4.112,13.819
			c-0.208,8.403,0.418,16.827,1.866,25.107c0.494,2.825,1.321,5.976,3.823,7.378c1.336,0.749,2.927,0.85,4.457,0.911
			c18.391,0.728,36.915-2.059,54.278-8.168c3.688-1.298,7.484-2.855,10.002-5.846c2.073-2.462,3.059-5.642,3.872-8.757
			c2.777-10.64,11.615-39.693-6.3-40.388c-8.05-0.312-16.621,2.524-24.406,4.169C837.678,374.869,827.102,377.104,816.526,379.338z"
			/>
		<linearGradient id="SVGID_4_" gradientUnits="userSpaceOnUse" x1="859.1311" y1="616.8891" x2="671.1176" y2="190.4195">
			<stop  offset="0.1974" style="stop-color:#71A679"/>
			<stop  offset="0.2106" style="stop-color:#6CA175"/>
			<stop  offset="0.2795" style="stop-color:#588964"/>
			<stop  offset="0.3534" style="stop-color:#497958"/>
			<stop  offset="0.4351" style="stop-color:#416F50"/>
			<stop  offset="0.54" style="stop-color:#3E6C4E"/>
		</linearGradient>
		<path fill="url(#SVGID_4_)" d="M735.567,319.386c8.907,24.624,13.949,50.45,21.102,75.639
			c7.153,25.189,16.709,50.263,33.259,70.555c2.127,2.608,4.723,5.317,8.081,5.555c2.203,0.156,4.343-0.813,6.165-2.062
			c5.549-3.804,8.825-10.065,11.635-16.178c2.81-6.112,5.501-12.519,10.375-17.157c4.873-4.638,12.663-7.001,18.445-3.562
			c4.078,2.426,6.257,7.113,7.402,11.718c5.205,20.948-6.555,42.61-21.65,58.039c-12.189,12.459-28.913,23.041-46.064,19.937
			c-14.562-2.635-25.519-14.337-35.36-25.388c-12.271-13.78-24.732-27.851-32.261-44.696c-8.202-18.353-10.041-39.077-8.065-59.081
			c1.976-20.005,7.611-39.46,13.854-58.568"/>
		
			<linearGradient id="SVGID_5_" gradientUnits="userSpaceOnUse" x1="675.8096" y1="-642.6448" x2="618.7369" y2="270.5189" gradientTransform="matrix(0.9863 0.1647 -0.1647 0.9863 -127.2202 492.473)">
			<stop  offset="0.3729" style="stop-color:#1D1D3D"/>
			<stop  offset="0.4474" style="stop-color:#18304A"/>
			<stop  offset="0.5704" style="stop-color:#124A5B"/>
			<stop  offset="0.6979" style="stop-color:#0D5C68"/>
			<stop  offset="0.8314" style="stop-color:#0A676F"/>
			<stop  offset="0.9807" style="stop-color:#096B71"/>
		</linearGradient>
		<path fill="url(#SVGID_5_)" d="M742.234,80.147c-39.938-31.16-96.858-38.955-143.703-19.68s-81.797,64.87-88.241,115.115
			c-2.296,17.898-1.324,36.597-8.152,53.3c-9.012,22.043-29.765,36.515-47.252,52.679c-27.402,25.329-49.013,58.77-52.981,95.873
			s12.63,77.53,45.51,95.174c18.676,10.022,40.804,12.131,61.851,9.623c21.047-2.508,41.305-9.36,61.28-16.447
			c17.653-6.263,35.597-12.95,50.082-24.827c11.323-9.284,20.032-21.356,27.668-33.85c24.164-39.538,38.595-84.086,56.598-126.783
			c18.595-44.1,41.394-87.323,48.591-134.639c1.947-12.802,2.663-26.222-1.755-38.394c-4.418-12.172-14.994-22.828-27.889-24.005"/>
		<linearGradient id="SVGID_6_" gradientUnits="userSpaceOnUse" x1="822.5765" y1="414.9364" x2="440.1544" y2="1017.9867">
			<stop  offset="0.138" style="stop-color:#6495BA"/>
			<stop  offset="0.2787" style="stop-color:#6495BA"/>
			<stop  offset="0.3123" style="stop-color:#5E8BB2"/>
			<stop  offset="0.4384" style="stop-color:#496B97"/>
			<stop  offset="0.5441" style="stop-color:#3C5786"/>
			<stop  offset="0.616" style="stop-color:#375080"/>
		</linearGradient>
		<path fill="url(#SVGID_6_)" d="M848.115,644.737c-0.316,1.106-0.671,2.172-1.027,3.238c-7.819,23.634-14.077,42.825-26.654,64.444
			c-6.437,11.037-13.998,21.481-22.468,31.057c-10.583,11.965-28.353,22.35-43.002,27.029c-38.797,12.399-74.277,7.68-112.205-3.85
			c-1.441-0.434-2.902-0.888-4.344-1.343c-32.735-10.326-100.339-41.601-112.027-79.331c-6.358-20.573-10.227-82.234,1.323-100.418
			c20.514-32.281,51.552-39.646,90.961-39.37l13.446,1.047c119.589,7.266,143.065,32.163,206.048,70.703
			c3.731,2.29,7.621,4.758,9.812,8.549C851.096,631.943,849.951,638.577,848.115,644.737z"/>
		<linearGradient id="SVGID_7_" gradientUnits="userSpaceOnUse" x1="887.4265" y1="263.0664" x2="395.4292" y2="665.7009">
			<stop  offset="0.1974" style="stop-color:#71A679"/>
			<stop  offset="0.2106" style="stop-color:#6CA175"/>
			<stop  offset="0.2795" style="stop-color:#588964"/>
			<stop  offset="0.3534" style="stop-color:#497958"/>
			<stop  offset="0.4351" style="stop-color:#416F50"/>
			<stop  offset="0.54" style="stop-color:#3E6C4E"/>
		</linearGradient>
		<path fill="url(#SVGID_7_)" d="M728.841,573.928c-27.286,10.721-25.825,20.455-55.046,30.208
			c-53.21,17.73-94.89,22.093-138.109-7.365c-5.548-3.771-10.603-12.972-7.858-30.643c0.75-4.818,1.836-14.788,1.955-19.645
			c0.612-22.251,2.488-41.699,5.252-59.982c2.508-16.763,5.785-32.558,9.536-48.669c5.548-23.87,12.123-48.452,18.796-77.91
			c2.191-9.635,4.423-19.389,9.141-28.056c12.36-22.745,38.698-33.387,62.984-42.331l37.02,2.034
			c23.693,1.362,50.623,4.403,64.582,23.594c9.339,12.853,4.482,73.507,0.474,88.887c-2.251,8.648-4.206,16.585-5.864,23.89
			c-5.766,25.154-8.194,42.667-8.411,55.184c-0.849,47.188,29.616,24.147,31.946,75.501
			C755.949,574.698,743.807,568.044,728.841,573.928z"/>
		<linearGradient id="SVGID_8_" gradientUnits="userSpaceOnUse" x1="693.6942" y1="310.4546" x2="645.5599" y2="386.7563">
			<stop  offset="0.1974" style="stop-color:#71A679"/>
			<stop  offset="0.2106" style="stop-color:#6CA175"/>
			<stop  offset="0.2795" style="stop-color:#588964"/>
			<stop  offset="0.3534" style="stop-color:#497958"/>
			<stop  offset="0.4351" style="stop-color:#416F50"/>
			<stop  offset="0.54" style="stop-color:#3E6C4E"/>
		</linearGradient>
		<path fill="url(#SVGID_8_)" d="M653.732,378.84c1.437,2.839,2.989,5.753,5.516,7.688c2.174,1.665,4.877,2.454,7.521,3.168
			c7.551,2.038,16.535,3.439,22.414-1.719c2.389-2.096,3.884-5.011,5.201-7.904c4.852-10.654,8.093-22.326,7.162-33.996
			c-0.931-11.67-6.494-23.33-16.281-29.754c-10.223-6.71-28.97-8.665-39.133-0.473c-9.476,7.638-6.234,24.459-3.707,34.449
			C644.94,360.245,649.112,369.71,653.732,378.84z"/>
		
			<linearGradient id="SVGID_9_" gradientUnits="userSpaceOnUse" x1="708.7079" y1="55.9767" x2="742.7562" y2="266.5519" gradientTransform="matrix(0.9984 0.0567 -0.0567 0.9984 -39.0458 173.0303)">
			<stop  offset="0.2671" style="stop-color:#E97769"/>
			<stop  offset="0.2933" style="stop-color:#EB7C6C"/>
			<stop  offset="0.4288" style="stop-color:#F2907A"/>
			<stop  offset="0.5632" style="stop-color:#F69D82"/>
			<stop  offset="0.6941" style="stop-color:#F8A185"/>
		</linearGradient>
		<path fill="url(#SVGID_9_)" d="M650.59,317.624c-3.983,17.25,2.773,36.518,16.657,47.504c3.378,2.673,7.404,4.955,11.709,4.782
			c4.344-0.175,8.302-2.908,10.792-6.472s3.683-7.876,4.362-12.17c0.967-6.112,0.973-12.376,0.019-18.49
			c-0.667-4.274-1.87-8.614-4.597-11.972c-5.895-7.257-16.615-7.712-25.964-7.563"/>
		
			<linearGradient id="SVGID_10_" gradientUnits="userSpaceOnUse" x1="649.8591" y1="-618.3269" x2="876.2906" y2="-618.3269" gradientTransform="matrix(0.9754 0.2204 -0.2204 0.9754 -194.2386 656.7064)">
			<stop  offset="0.2671" style="stop-color:#E97769"/>
			<stop  offset="0.2933" style="stop-color:#EB7C6C"/>
			<stop  offset="0.4288" style="stop-color:#F2907A"/>
			<stop  offset="0.5632" style="stop-color:#F69D82"/>
			<stop  offset="0.6941" style="stop-color:#F8A185"/>
		</linearGradient>
		<path fill="url(#SVGID_10_)" d="M802.002,199.07c0.099-42.696-15.713-76.797-54.47-94.71
			c-36.505-16.873-80.031-7.71-109.87,18.249c-18.993,16.524-28.097,48-31.664,78.155c-9.548-3.428-20.414-3.708-26.916,1.987
			c-2.457,2.152-4.239,4.984-5.582,7.961c-4.062,9.006-4.199,19.702-0.368,28.809c3.83,9.107,11.572,16.49,20.849,19.884
			c3.792,1.388,7.953,2.086,11.942,1.688c5.666,36.637,25.528,72.068,58.876,87.307c22.989,10.505,50.679,10.124,73.37-1.011
			c32.477-15.938,54.915-43.641,49.744-85.962C785.66,242.986,801.959,217.646,802.002,199.07z"/>
		
			<linearGradient id="SVGID_11_" gradientUnits="userSpaceOnUse" x1="625.8255" y1="-445.7641" x2="1049.2228" y2="-1131.5118" gradientTransform="matrix(0.9754 0.2204 -0.2204 0.9754 -194.2386 656.7064)">
			<stop  offset="0.3729" style="stop-color:#1D1D3D"/>
			<stop  offset="0.4474" style="stop-color:#18304A"/>
			<stop  offset="0.5704" style="stop-color:#124A5B"/>
			<stop  offset="0.6979" style="stop-color:#0D5C68"/>
			<stop  offset="0.8314" style="stop-color:#0A676F"/>
			<stop  offset="0.9807" style="stop-color:#096B71"/>
		</linearGradient>
		<path fill="url(#SVGID_11_)" d="M607.577,238.523c-0.186,1.273-0.392,2.679,0.31,3.758c0.663,1.02,1.935,1.425,3.105,1.759
			c5.116,1.458,10.877,2.852,15.522,0.26c5.169-2.885,6.771-9.434,7.868-15.25c3.268-17.316,6.535-34.633,9.803-51.949
			c19.823,15.208,46.793,15.968,71.778,16.083c5.107,0.024,11.255-0.547,13.593-5.088c2.401-4.663-0.941-10.111-4.131-14.274
			c26.484,14.22,57.437,19.965,87.26,16.195c7.26-0.918,15.125-2.786,19.526-8.633s2.136-16.526-5.132-17.382
			c10.99-1.853,19.896-12.254,20.035-23.399c0.102-8.147-3.915-15.782-8.616-22.437c-6.705-9.49-15.035-17.829-24.519-24.544
			c-24.899-17.632-56.318-23.3-86.78-24.997c-29.558-1.646-61.063,0.582-85.382,17.463c-14.103,9.79-24.74,23.86-33.239,38.777
			c-6.892,12.097-12.586,25.059-14.902,38.788c-2.232,13.23-1.526,27.877,5.422,39.621
			C605.811,214.623,609.574,224.849,607.577,238.523z"/>
		
			<linearGradient id="SVGID_12_" gradientUnits="userSpaceOnUse" x1="989.0807" y1="152.3378" x2="517.6283" y2="554.1545" gradientTransform="matrix(0.9916 0.1296 -0.1296 0.9916 -37.0181 373.3979)">
			<stop  offset="0.2025" style="stop-color:#7A7D7F"/>
			<stop  offset="0.211" style="stop-color:#737577"/>
			<stop  offset="0.2568" style="stop-color:#505253"/>
			<stop  offset="0.3049" style="stop-color:#333435"/>
			<stop  offset="0.3554" style="stop-color:#1C1D1D"/>
			<stop  offset="0.4092" style="stop-color:#0C0D0D"/>
			<stop  offset="0.4687" style="stop-color:#030303"/>
			<stop  offset="0.5451" style="stop-color:#000000"/>
		</linearGradient>
		<path fill="url(#SVGID_12_)" d="M720.528,702.969c-3.76,56.281-7.521,112.562-11.281,168.843
			c-0.178,2.664-0.341,5.432,0.649,7.911c1.974,4.947,7.822,7.121,13.128,7.585s10.813-0.183,15.838,1.585
			c7.321-51.045,20.63-158.728,27.952-209.773c0.867-6.042,1.725-12.269,0.227-18.186
			C764.539,651.062,722.947,639.521,720.528,702.969"/>
		
			<linearGradient id="SVGID_13_" gradientUnits="userSpaceOnUse" x1="-93.181" y1="97.7418" x2="-397.7388" y2="-162.3409" gradientTransform="matrix(0.9718 0.2359 -0.2359 0.9718 911.6895 935.4744)">
			<stop  offset="0.2569" style="stop-color:#A1C4D7"/>
			<stop  offset="0.297" style="stop-color:#A8C8D9"/>
			<stop  offset="0.4419" style="stop-color:#BDD2DF"/>
			<stop  offset="0.5856" style="stop-color:#C9D9E2"/>
			<stop  offset="0.7256" style="stop-color:#CDDBE3"/>
		</linearGradient>
		<path fill="url(#SVGID_13_)" d="M761.354,925.509c-3.849-4.26-7.133-7.408-11.223-11.534c-3.741-3.775-4.972-6.756-6.63-11.926
			c-1.027-3.202-1.622-6.567-1.775-9.964c-0.172-3.825,2.45-10.295,2.581-14.119c0.028-0.806-4.581-0.609-5.317-0.737
			c-9.108-1.584-13.467-2.331-24.1-5.41l-5.684-1.691c-0.672,0.022-1.351,3.111-1.484,3.807c-0.297,1.552,0.416,3.555,0.187,5.394
			c-1.693,13.573-6.496,26.2-9.885,39.462c-0.708,2.778-1.299,6.113,0.551,8.145c0.881,0.968,1.719,1.947,2.886,2.489
			c17.696,8.217,17.767,8.854,37.396,15.439c9.688,3.25,27.618,6.004,39.055,6.47c2.534,0.103,3.653-4.788,1.907-6.686
			C770.422,934.432,770.483,935.613,761.354,925.509z"/>
		
			<linearGradient id="SVGID_14_" gradientUnits="userSpaceOnUse" x1="1051.4529" y1="132.0849" x2="595.8812" y2="520.3665" gradientTransform="matrix(0.9916 0.1296 -0.1296 0.9916 -37.0181 373.3979)">
			<stop  offset="0.2025" style="stop-color:#7A7D7F"/>
			<stop  offset="0.211" style="stop-color:#737577"/>
			<stop  offset="0.2568" style="stop-color:#505253"/>
			<stop  offset="0.3049" style="stop-color:#333435"/>
			<stop  offset="0.3554" style="stop-color:#1C1D1D"/>
			<stop  offset="0.4092" style="stop-color:#0C0D0D"/>
			<stop  offset="0.4687" style="stop-color:#030303"/>
			<stop  offset="0.5451" style="stop-color:#000000"/>
		</linearGradient>
		<path fill="url(#SVGID_14_)" d="M791.852,689.278c-3.634,54.385-7.268,108.77-10.901,163.155
			c-0.172,2.574-0.329,5.249,0.627,7.645c1.908,4.78,7.558,6.881,12.686,7.329c5.127,0.449,10.449-0.177,15.305,1.532
			c7.075-49.326,19.935-153.381,27.01-202.706c0.837-5.838,1.667-11.856,0.219-17.573
			C834.381,639.12,794.189,627.968,791.852,689.278"/>
		
			<linearGradient id="SVGID_15_" gradientUnits="userSpaceOnUse" x1="-32.0664" y1="58.2269" x2="-326.3652" y2="-193.095" gradientTransform="matrix(0.9718 0.2359 -0.2359 0.9718 911.6895 935.4744)">
			<stop  offset="0.2569" style="stop-color:#A1C4D7"/>
			<stop  offset="0.297" style="stop-color:#A8C8D9"/>
			<stop  offset="0.4419" style="stop-color:#BDD2DF"/>
			<stop  offset="0.5856" style="stop-color:#C9D9E2"/>
			<stop  offset="0.7256" style="stop-color:#CDDBE3"/>
		</linearGradient>
		<path fill="url(#SVGID_15_)" d="M831.303,904.322c-3.72-4.117-6.892-7.158-10.845-11.146c-3.615-3.647-4.805-6.529-6.406-11.524
			c-0.992-3.094-1.567-6.345-1.715-9.628c-0.166-3.696,2.367-9.949,2.494-13.643c0.027-0.778-4.426-0.588-5.138-0.712
			c-8.801-1.53-13.013-2.252-23.289-5.228l-5.493-1.634c-0.649,0.021-1.305,3.006-1.434,3.678c-0.287,1.499,0.402,3.435,0.18,5.212
			c-1.636,13.115-6.278,25.317-9.552,38.133c-0.684,2.684-1.255,5.907,0.532,7.87c0.852,0.935,1.662,1.882,2.789,2.405
			c17.1,7.941,17.168,8.556,36.136,14.919c9.362,3.141,26.688,5.802,37.739,6.252c2.449,0.1,3.53-4.627,1.843-6.461
			C840.065,912.945,840.124,914.086,831.303,904.322z"/>
		
			<linearGradient id="SVGID_16_" gradientUnits="userSpaceOnUse" x1="927.0593" y1="-432.6162" x2="968.6734" y2="-432.6162" gradientTransform="matrix(0.975 0.2221 -0.2221 0.975 -171.6974 636.306)">
			<stop  offset="0.2671" style="stop-color:#E97769"/>
			<stop  offset="0.2933" style="stop-color:#EB7C6C"/>
			<stop  offset="0.4288" style="stop-color:#F2907A"/>
			<stop  offset="0.5632" style="stop-color:#F69D82"/>
			<stop  offset="0.6941" style="stop-color:#F8A185"/>
		</linearGradient>
		<path fill="url(#SVGID_16_)" d="M839.372,462.273c6.127,2.135,13.146-0.583,17.683-5.222c4.537-4.639,7.029-10.875,8.983-17.062
			c2.609-8.259,4.462-16.757,5.529-25.353c0.663-5.338,1.016-10.806-0.167-16.053c-0.788-3.495-2.477-7.082-5.654-8.738
			c-3.093-1.613-6.977-0.999-10.003,0.736c-3.026,1.736-5.356,4.444-7.545,7.16c-5.03,6.242-9.373,12.887-13.861,19.514
			c-2.933,4.331-6.811,8.655-8.391,13.736C822.809,441.082,828.856,458.609,839.372,462.273z"/>
		<linearGradient id="SVGID_17_" gradientUnits="userSpaceOnUse" x1="736.2007" y1="461.1614" x2="365.0824" y2="464.8222">
			<stop  offset="0.0421" style="stop-color:#71A679"/>
			<stop  offset="0.2293" style="stop-color:#61936B"/>
			<stop  offset="0.54" style="stop-color:#3E6C4E"/>
		</linearGradient>
		<path fill="url(#SVGID_17_)" d="M731.704,427.941c-5.766,25.154-8.194,42.667-8.411,55.184c-0.455,0.099-0.909,0.197-1.363,0.296
			c-61.384,13.288-126.124,17.651-186.896,3.08c2.508-16.763,5.785-32.558,9.536-48.669c30.05,9.852,62.174,12.399,93.862,12.241
			c22.548-0.118,45.471-1.639,66.617-9.457C712.177,437.971,722.384,430.232,731.704,427.941z"/>
		<linearGradient id="SVGID_18_" gradientUnits="userSpaceOnUse" x1="458.4059" y1="705.2089" x2="655.0768" y2="133.7062">
			<stop  offset="0.1974" style="stop-color:#71A679"/>
			<stop  offset="0.2163" style="stop-color:#6CA175"/>
			<stop  offset="0.3147" style="stop-color:#588964"/>
			<stop  offset="0.4203" style="stop-color:#497958"/>
			<stop  offset="0.5371" style="stop-color:#416F50"/>
			<stop  offset="0.687" style="stop-color:#3E6C4E"/>
		</linearGradient>
		<path fill="url(#SVGID_18_)" d="M499.772,476.052c-4.367,14.008-8.256,28.213-10.919,42.709
			c-4.432,24.126-5.431,48.866-4.715,73.449c0.282,9.671,0.919,19.7,5.217,28.196c4.298,8.495,13.276,15,22.05,12.94
			c6.662-1.565,11.759-7.666,14.43-14.426s3.333-14.209,4.126-21.507c4.727-43.482,15.247-86.228,31.138-126.519
			c8.819-22.361,19.286-43.984,26.982-66.822c4.695-13.934,25.645-99.078-9.163-82.792c-14.447,6.76-22.287,25.539-29.871,39.256
			c-9.539,17.252-18.27,35.023-26.152,53.22C514.113,434.031,506.385,454.84,499.772,476.052z"/>
		
			<linearGradient id="SVGID_19_" gradientUnits="userSpaceOnUse" x1="397.9649" y1="1069.4305" x2="420.3176" y2="722.9631" gradientTransform="matrix(0.9965 -0.084 0.084 0.9965 20.2199 -253.49)">
			<stop  offset="0.2671" style="stop-color:#E97769"/>
			<stop  offset="0.2933" style="stop-color:#EB7C6C"/>
			<stop  offset="0.4288" style="stop-color:#F2907A"/>
			<stop  offset="0.5632" style="stop-color:#F69D82"/>
			<stop  offset="0.6941" style="stop-color:#F8A185"/>
		</linearGradient>
		<path fill="url(#SVGID_19_)" d="M481.048,638.19c-0.975,10.101-1.549,20.391,0.333,30.341s6.476,19.641,14.126,25.572
			c2.88,2.233,6.638,3.923,9.921,2.474c2.658-1.174,4.262-4.087,5.388-6.934c3.19-8.07,4.427-17.679,10.671-23.307
			c1.503-1.355,3.257-2.425,4.488-4.068c2.353-3.14,2.284-7.575,2.099-11.605c-0.242-5.293-0.484-10.587-0.726-15.88
			c-0.332-7.267-0.749-14.854-4.159-21.134c-3.481-6.411-9.864-10.698-16.641-12.051c-7.122-1.422-18.084-0.816-21.39,6.387
			C481.52,615.91,481.893,629.44,481.048,638.19z"/>
		
			<ellipse transform="matrix(0.1987 -0.9801 0.9801 0.1987 316.9683 886.277)" fill="#061D26" cx="700.491" cy="249.295" rx="9.287" ry="5.463"/>
		
			<ellipse transform="matrix(0.1987 -0.9801 0.9801 0.1987 367.3695 957.9624)" fill="#061D26" cx="769.531" cy="254.315" rx="7.67" ry="4.512"/>
		<g>
			<path fill="#85373F" d="M678.742,308.479c0.814-0.358,1.938,0.969,5.336,2.434c3.552,1.417,9.292,3.966,17.544,5.921
				c8.301,1.935,14.432,2.233,18.445,2.629c4.02,0.342,5.991,0.737,6.104,1.581c0.107,0.775-1.693,1.86-5.925,2.604
				c-4.201,0.684-10.946,1.058-19.988-1.05c-4.509-1.059-8.245-2.465-11.268-3.891c-3.024-1.471-5.319-2.818-7.132-4.243
				c-1.797-1.423-2.857-2.94-3.242-4.046C678.224,309.297,678.39,308.655,678.742,308.479z"/>
		</g>
		<g>
			<path fill="#003539" d="M682.681,223.795c-0.379-0.688,0.212-1.943,2.322-3.43c2.096-1.45,5.786-3.164,11.295-3.744
				c5.516-0.51,9.471,0.449,11.81,1.461c2.36,1.046,3.185,2.161,2.949,2.91c-0.252,0.809-1.492,1.128-3.789,1.194
				c-2.3,0.09-5.69-0.101-10.387,0.33c-4.691,0.496-7.978,1.347-10.251,1.709C684.365,224.609,683.087,224.539,682.681,223.795z"/>
		</g>
		<g>
			<path fill="#003539" d="M783.913,230.104c-0.631,0.548-1.609,0.49-2.969-0.06c-1.373-0.542-3.127-1.599-5.676-2.86
				c-2.567-1.224-4.483-1.948-5.758-2.692c-1.273-0.728-1.924-1.461-1.883-2.296c0.037-0.796,0.792-1.552,2.509-1.845
				c1.693-0.278,4.407-0.078,7.719,1.504c3.292,1.624,5.128,3.633,5.956,5.135C784.643,228.522,784.516,229.583,783.913,230.104z"/>
		</g>
		<g>
			<path fill="#85373F" d="M744.888,284.022c-1.557-0.016-3.09-3.338-1.692-10.788c1.585-7.413,4.281-9.886,5.723-9.3
				c1.591,0.62,1.504,3.785,0.084,10.465C747.736,281.111,746.595,284.064,744.888,284.022z"/>
		</g>
		<g>
			<path fill="#85373F" d="M734.375,292.771c0.43-0.038,0.77-0.102,1.253-0.218c0.566-0.069,1.729,0.216,2.964,0.558
				c1.273,0.349,2.803,0.847,4.473,1.041c0.854,0.1,1.625,0.092,2.506-0.074c0.852-0.165,1.708-0.503,2.309-0.996
				c0.604-0.503,0.891-1.003,1.053-1.656c0.157-0.648,0.119-1.361-0.03-1.97c-0.285-1.187-1.065-2.104-1.865-2.77
				c-1.626-1.319-2.961-1.782-3.002-2.642c-0.027-0.398,0.269-0.834,1.046-1.15c0.767-0.296,2.042-0.486,3.739,0.002
				c1.631,0.468,3.918,1.776,5.186,4.626c0.595,1.382,0.922,3.054,0.641,4.91c-0.248,1.843-1.332,3.914-3.044,5.255
				c-3.488,2.647-7.12,2.45-9.634,1.81c-2.515-0.695-4.133-1.786-5.296-2.665c-1.191-0.931-1.782-1.616-2.339-2.373
				c-0.282-0.396-0.44-0.858-0.388-1.176C733.993,292.962,734.182,292.82,734.375,292.771z"/>
		</g>
	</g>
</g>
</svg>
